<svg width="31" height="22" viewBox="0 0 31 22" fill="none" xmlns="http://www.w3.org/2000/svg">
<path d="M20.2812 4.0625C20.2812 5.68126 20.6838 6.84548 21.249 7.69336C21.8173 8.54579 22.5803 9.12359 23.3662 9.5166C24.155 9.91101 24.9535 10.1117 25.5605 10.2129C25.8623 10.2632 26.1127 10.2885 26.2842 10.3008C26.3696 10.3069 26.4352 10.3101 26.4775 10.3115H26.5273V10.3125H26.5322L26.5312 10.7129L26.5322 11.8125H26.5234C26.5144 11.8126 26.4987 11.8128 26.4775 11.8135C26.4352 11.8149 26.3696 11.8181 26.2842 11.8242C26.1127 11.8365 25.8623 11.8618 25.5605 11.9121C24.9535 12.0133 24.155 12.214 23.3662 12.6084C22.5803 13.0014 21.8173 13.5792 21.249 14.4316C20.6838 15.2795 20.2812 16.4437 20.2812 18.0625H18.7812C18.7812 16.1813 19.2537 14.7205 20.001 13.5996C20.5078 12.8394 21.1291 12.2585 21.7773 11.8115H4.52734V10.3115H21.7744C21.1272 9.86476 20.507 9.28449 20.001 8.52539C19.2537 7.40452 18.7812 5.94374 18.7812 4.0625H20.2812Z" fill="#F8D65B"/>
</svg>
